{"glyphs":{"0":{"ha":768,"x_min":82,"x_max":807,"o":"m 807 689 q 690 210 807 417 q 365 -17 563 -17 q 144 99 218 -17 q 82 361 82 196 q 201 828 82 626 q 532 1047 331 1047 q 733 953 658 1047 q 807 689 807 858 m 638 697 q 514 903 638 903 q 322 711 401 903 q 250 347 250 539 q 376 124 250 124 q 565 321 485 124 q 638 697 638 500 z "},"1":{"ha":335,"x_min":7,"x_max":421,"o":"m 421 1018 l 206 88 q 208 0 196 46 l 7 0 q 47 89 36 40 l 229 863 q 214 956 242 915 l 421 1018 z "},"2":{"ha":650,"x_min":-24,"x_max":725,"o":"m 725 781 q 458 407 725 606 q 285 269 326 308 q 194 143 217 207 l 475 143 q 611 174 574 143 l 564 0 l -24 0 q 118 310 8 181 q 357 515 183 388 q 556 783 556 663 q 517 872 556 833 q 419 911 479 911 q 303 863 349 911 q 256 739 257 815 l 115 825 q 214 975 136 913 q 432 1047 304 1047 q 647 968 567 1047 q 725 781 725 894 z "},"3":{"ha":689,"x_min":28,"x_max":740,"o":"m 740 788 q 571 543 740 642 q 658 465 621 524 q 694 336 694 407 q 608 93 694 189 q 332 -17 511 -17 q 104 60 192 -17 q 28 208 28 125 q 101 363 28 272 q 186 183 121 244 q 332 126 246 126 q 477 182 424 126 q 531 335 531 238 q 483 442 531 400 q 396 478 442 478 l 328 478 l 371 619 q 429 613 394 613 q 537 661 488 613 q 586 783 586 710 q 549 878 586 844 q 451 911 513 911 q 335 863 381 911 q 289 739 290 815 l 150 825 q 247 975 171 913 q 464 1047 336 1047 q 671 968 593 1047 q 740 788 740 894 z "},"4":{"ha":715,"x_min":33,"x_max":761,"o":"m 761 1004 q 733 918 746 974 l 617 404 l 675 404 q 750 417 713 404 l 718 263 l 585 263 l 543 88 q 547 0 532 43 l 344 0 q 386 94 371 33 l 428 265 l 33 265 l 60 400 l 533 1004 l 761 1004 m 553 822 l 228 406 l 457 406 l 553 822 z "},"5":{"ha":656,"x_min":7,"x_max":746,"o":"m 746 1004 l 699 839 q 628 861 663 861 l 371 861 l 315 656 q 407 667 356 667 q 594 596 524 667 q 669 374 669 518 q 581 110 669 222 q 311 -17 481 -17 q 85 54 171 -17 q 7 203 7 117 q 74 351 7 260 q 308 119 126 119 q 457 190 400 119 q 508 353 508 257 q 463 494 508 440 q 328 549 417 549 q 118 481 238 549 l 260 1004 l 746 1004 z "},"6":{"ha":713,"x_min":67,"x_max":757,"o":"m 757 1004 q 357 660 504 864 q 225 319 225 478 q 267 175 225 229 q 385 117 310 117 q 511 185 454 117 q 574 372 574 260 q 411 546 574 546 q 369 546 369 546 q 503 644 408 644 q 663 579 601 644 q 725 385 725 510 q 633 110 725 226 q 381 -17 533 -17 q 147 78 231 -17 q 67 317 67 168 q 207 704 67 501 q 515 1004 335 888 l 757 1004 z "},"7":{"ha":642,"x_min":44,"x_max":782,"o":"m 782 1004 q 703 772 764 874 q 442 444 638 663 q 279 233 326 315 q 232 78 232 151 q 242 0 232 25 l 46 0 q 93 211 44 115 q 299 486 147 322 q 508 722 460 660 q 597 861 565 792 l 269 861 q 167 840 208 861 l 228 1004 l 782 1004 z "},"8":{"ha":722,"x_min":60,"x_max":778,"o":"m 778 822 q 733 670 778 731 q 572 550 688 610 q 718 292 718 432 q 607 57 718 140 q 361 -17 510 -17 q 132 75 218 -17 q 60 240 60 151 q 314 563 60 442 q 192 786 192 671 q 278 972 192 897 q 503 1047 365 1047 q 719 969 644 1047 q 778 822 778 908 m 625 811 q 496 926 625 926 q 386 890 429 926 q 343 790 343 854 q 464 633 343 733 q 625 811 625 721 m 544 283 q 417 478 544 376 q 225 254 225 385 q 263 153 225 194 q 378 106 304 106 q 506 161 461 106 q 544 283 544 208 z "},"9":{"ha":676,"x_min":71,"x_max":729,"o":"m 729 704 q 581 294 729 504 q 297 0 471 140 l 71 0 q 425 340 299 164 q 563 704 563 529 q 526 860 563 806 q 426 914 489 914 q 300 847 351 914 q 243 651 243 774 q 386 471 243 471 q 410 474 396 471 q 428 478 424 478 q 304 372 388 372 q 150 444 213 372 q 82 651 82 522 q 182 930 82 813 q 435 1047 282 1047 q 650 955 571 1047 q 729 704 729 863 z "}," ":{"ha":347,"x_min":0,"x_max":0,"o":""},"!":{"ha":256,"x_min":7,"x_max":360,"o":"m 360 857 l 171 218 l 65 218 l 186 857 l 360 857 m 168 85 q 144 13 168 44 q 81 -19 119 -19 q 7 61 7 -19 q 31 132 7 100 q 93 164 56 164 q 147 141 125 164 q 168 85 168 118 z "},"&":{"ha":801,"x_min":7,"x_max":799,"o":"m 799 458 q 664 311 799 358 q 667 274 667 296 q 621 115 667 183 q 461 3 567 35 q 349 -15 404 -15 q 79 81 172 -15 q 7 258 7 157 q 56 415 7 344 q 225 522 115 499 q 161 650 161 581 q 231 803 161 742 q 413 864 301 864 q 571 829 506 864 q 668 694 654 785 l 533 642 q 504 724 540 696 q 425 747 475 747 q 345 717 379 747 q 311 643 311 688 q 442 549 311 549 q 489 551 461 549 l 463 436 q 418 439 440 439 q 228 389 294 439 q 163 258 163 339 q 215 150 163 192 q 347 108 267 108 q 477 155 428 108 q 522 278 526 201 q 442 258 463 267 q 371 196 385 236 q 332 294 332 264 q 424 375 332 351 q 592 413 507 393 q 683 510 683 440 q 654 582 683 546 q 761 538 733 557 q 799 458 799 510 z "},"'":{"ha":239,"x_min":6,"x_max":236,"o":"m 236 858 q 172 676 226 767 q 47 588 111 575 l 6 596 q 49 689 28 642 q 90 858 90 790 l 236 858 z "},",":{"ha":239,"x_min":-79,"x_max":151,"o":"m 151 128 q 88 -54 142 36 q -37 -143 26 -156 l -79 -135 q -32 -35 -56 -85 q 6 128 6 58 l 151 128 z "},"-":{"ha":482,"x_min":54,"x_max":408,"o":"m 408 390 l 376 247 l 117 247 q 54 236 68 247 l 89 379 l 335 379 q 408 390 385 379 z "},".":{"ha":257,"x_min":-11,"x_max":164,"o":"m 164 93 q 63 -19 164 -19 q -11 58 -11 -19 q 19 136 -11 103 q 83 169 49 169 q 164 93 164 169 z "},"/":{"ha":590,"x_min":-36,"x_max":746,"o":"m 746 1004 q 685 929 710 972 l 140 0 l -36 0 q 18 75 -4 38 q 563 1004 61 147 l 746 1004 z "},":":{"ha":267,"x_min":-11,"x_max":225,"o":"m 222 417 q 125 314 213 314 q 70 344 90 314 q 54 408 50 375 q 146 503 67 503 q 205 477 185 503 q 222 417 225 451 m 165 90 q 65 -19 165 -19 q 8 8 28 -19 q -8 71 -11 36 q 24 142 -4 114 q 86 169 51 169 q 165 90 165 169 z "},";":{"ha":239,"x_min":-64,"x_max":214,"o":"m 214 421 q 189 343 214 374 q 117 314 161 308 q 46 403 43 322 q 76 478 47 450 q 142 503 106 506 q 214 421 214 496 m 167 142 q 103 -47 157 47 q -22 -143 42 -156 l -64 -135 q 21 142 21 54 l 167 142 z "},"?":{"ha":603,"x_min":129,"x_max":688,"o":"m 688 689 q 635 553 688 619 q 492 425 592 500 q 361 304 397 354 q 332 211 332 261 q 242 317 242 274 q 272 400 242 361 q 381 497 299 433 q 525 689 525 611 q 499 752 525 726 q 424 778 474 778 q 310 727 357 778 q 271 606 264 676 l 129 692 q 228 844 151 783 q 438 914 314 914 q 624 853 560 914 q 688 689 688 792 m 368 85 q 344 13 368 44 q 281 -19 319 -19 q 207 61 207 -19 q 231 132 207 100 q 293 164 256 164 q 347 141 325 164 q 368 85 368 118 z "},"A":{"ha":811,"x_min":-114,"x_max":928,"o":"m 928 1004 q 901 961 904 965 q 872 872 885 926 l 699 115 q 690 51 690 79 q 700 0 690 39 l 481 0 q 540 117 521 38 q 581 292 553 167 l 292 292 q 104 0 206 133 l -114 0 q 97 257 -1 89 q 407 771 303 606 q 546 951 497 914 q 747 1004 614 1004 l 928 1004 m 713 865 q 637 846 665 865 q 571 764 608 826 q 368 424 501 650 l 611 424 l 713 865 z "},"B":{"ha":843,"x_min":81,"x_max":853,"o":"m 853 788 q 681 532 853 631 q 800 336 800 475 q 693 96 800 196 q 394 -11 578 -11 q 225 14 313 -11 q 110 63 151 36 l 242 639 q 249 756 257 711 l 443 817 l 389 590 l 418 590 q 574 617 510 590 q 653 676 621 636 q 690 786 690 724 q 493 921 690 921 q 240 813 329 921 q 181 697 194 756 q 169 597 174 674 q 114 661 117 658 q 81 740 81 706 q 197 954 81 867 q 507 1047 318 1047 q 765 968 668 1047 q 853 788 853 894 m 631 340 q 479 474 631 465 q 361 464 436 476 l 288 142 q 396 122 346 122 q 568 193 500 122 q 631 340 631 258 z "},"C":{"ha":888,"x_min":135,"x_max":933,"o":"m 933 822 l 779 763 q 781 786 781 775 q 733 883 781 849 q 629 914 692 914 q 407 778 503 914 q 304 407 304 632 q 356 206 304 282 q 513 124 411 124 q 681 188 606 124 q 794 363 756 253 q 844 268 817 326 q 850 238 850 256 q 758 79 850 160 q 521 -12 654 -12 q 218 119 317 -12 q 135 421 135 231 q 279 876 135 699 q 622 1047 418 1047 q 838 987 753 1047 q 933 822 922 926 z "},"D":{"ha":928,"x_min":79,"x_max":929,"o":"m 929 624 q 889 375 929 500 q 769 147 846 242 q 618 28 710 75 q 414 -22 518 -22 q 119 63 264 -22 l 256 656 q 249 747 264 693 l 450 806 l 297 143 q 418 114 347 114 q 660 258 561 114 q 760 633 760 401 q 504 915 760 915 q 243 815 331 915 q 171 603 174 735 q 79 747 79 681 q 176 935 79 846 q 507 1047 299 1047 q 744 989 644 1047 q 929 624 929 882 z "},"E":{"ha":632,"x_min":0,"x_max":767,"o":"m 767 1004 l 732 846 q 642 865 693 865 l 386 865 l 318 568 l 472 568 q 589 589 519 568 l 550 411 q 435 436 508 436 l 288 436 l 217 131 l 444 131 q 589 160 544 131 l 551 0 l 0 0 q 60 133 42 47 q 238 906 68 169 q 242 942 242 924 q 229 1004 242 976 l 767 1004 z "},"F":{"ha":564,"x_min":0,"x_max":768,"o":"m 768 1004 q 731 843 753 939 q 642 864 689 864 l 386 864 l 318 568 l 472 568 q 590 589 521 568 q 549 410 575 522 q 435 435 507 435 l 288 435 q 211 107 265 344 q 215 0 197 43 l 0 0 q 56 118 40 57 q 238 904 81 219 q 242 943 242 922 q 231 1004 242 976 l 768 1004 z "},"G":{"ha":894,"x_min":135,"x_max":939,"o":"m 939 821 l 783 761 q 785 785 785 774 q 738 882 785 849 q 633 913 696 913 q 410 774 507 913 q 304 404 306 625 q 356 201 303 279 q 515 119 413 119 q 631 151 569 119 q 690 410 665 296 q 682 492 699 446 l 899 492 q 854 415 867 469 q 778 89 828 297 q 525 -17 669 -17 q 219 115 318 -17 q 135 418 135 226 q 264 857 135 676 q 619 1047 401 1047 q 841 986 754 1047 q 939 821 928 925 z "},"H":{"ha":801,"x_min":-6,"x_max":914,"o":"m 914 1004 q 886 953 894 972 q 860 872 869 917 l 682 104 q 676 57 676 79 q 681 17 676 36 q 686 0 686 -1 l 472 0 q 526 117 508 36 q 601 440 565 290 l 283 440 q 206 106 242 260 q 210 0 193 50 l -6 0 q 50 117 32 36 q 232 904 107 374 q 225 1004 244 956 l 438 1004 q 413 963 417 972 q 383 872 396 929 q 314 572 354 749 l 631 572 l 708 906 q 711 931 711 915 q 700 1004 711 963 l 914 1004 z "},"I":{"ha":329,"x_min":0,"x_max":443,"o":"m 443 1004 q 418 965 419 968 q 389 872 403 933 q 211 104 318 564 q 206 56 206 78 q 215 0 206 31 l 0 0 q 56 117 36 35 l 238 906 q 242 943 242 924 q 231 1004 242 976 l 443 1004 z "},"J":{"ha":383,"x_min":-129,"x_max":500,"o":"m 500 1004 q 446 871 468 967 q 279 149 425 783 q 176 -53 249 14 q 38 -108 117 -108 q -67 -86 -28 -108 q -129 -24 -100 -68 q 49 31 -12 -24 q 124 172 100 76 q 286 868 185 439 q 292 1004 308 958 l 500 1004 z "},"K":{"ha":750,"x_min":-1,"x_max":914,"o":"m 914 1004 q 882 983 899 996 q 810 914 843 954 l 471 504 l 601 196 q 708 17 654 71 q 849 -54 758 -33 q 721 -108 772 -108 q 465 117 558 -108 q 300 510 318 472 l 207 110 q 208 0 196 63 l -1 0 q 50 117 32 40 q 231 899 114 393 q 225 1004 242 949 l 439 1004 q 382 867 401 953 q 303 522 361 775 l 699 1004 l 914 1004 z "},"L":{"ha":599,"x_min":0,"x_max":551,"o":"m 551 158 l 514 0 l 0 0 q 57 129 40 57 q 240 925 136 474 q 238 1004 249 958 l 453 1004 q 389 879 406 950 q 217 135 286 444 l 418 135 q 503 138 482 135 q 551 158 525 142 z "},"M":{"ha":1013,"x_min":0,"x_max":1128,"o":"m 1128 1004 q 1074 871 1100 983 l 896 103 q 894 0 882 44 l 693 0 q 735 97 722 44 l 882 729 l 457 7 q 450 7 453 0 l 344 717 l 201 97 q 204 0 189 43 l 0 0 q 53 128 33 43 l 232 901 q 226 1004 246 960 l 439 1004 l 532 367 l 893 1004 l 1128 1004 z "},"N":{"ha":842,"x_min":1,"x_max":954,"o":"m 954 1004 q 900 881 924 968 q 846 649 893 856 q 694 0 815 517 l 535 0 l 351 763 l 200 96 q 206 0 189 47 l 1 0 q 51 122 35 51 l 229 889 q 228 1004 246 961 l 443 1004 l 610 285 l 746 897 q 739 1004 761 961 l 954 1004 z "},"O":{"ha":982,"x_min":138,"x_max":983,"o":"m 983 629 q 858 189 983 374 q 494 -17 719 -17 q 221 119 317 -17 q 138 418 138 236 q 265 847 138 663 q 622 1047 406 1047 q 885 939 789 1047 q 983 629 983 826 m 811 639 q 619 903 811 903 q 390 740 481 903 q 310 411 310 596 q 507 124 310 124 q 740 314 653 124 q 811 639 811 467 z "},"P":{"ha":776,"x_min":79,"x_max":867,"o":"m 867 764 q 360 401 867 401 l 289 88 q 293 0 285 68 l 83 0 q 129 97 118 51 q 253 644 193 378 q 253 744 264 692 l 454 806 l 389 535 q 599 572 514 528 q 703 744 703 628 q 647 868 703 824 q 526 911 600 907 q 379 893 450 915 q 242 801 292 864 q 185 700 199 749 q 169 582 175 667 q 100 668 117 640 q 79 732 79 700 q 156 908 79 822 q 506 1042 274 1042 q 778 953 676 1042 q 867 764 867 875 z "},"Q":{"ha":994,"x_min":136,"x_max":982,"o":"m 982 629 q 932 340 982 478 q 785 104 879 196 q 821 92 804 99 q 878 51 861 74 q 899 -81 899 24 q 813 -32 872 -56 q 679 -6 742 -6 q 578 -11 632 -6 q 493 -17 525 -17 q 219 119 315 -17 q 136 418 136 236 q 261 847 136 664 q 614 1047 397 1047 q 879 943 782 1047 q 982 629 982 832 m 810 639 q 618 903 810 903 q 389 739 479 903 q 308 407 308 592 q 506 124 308 124 q 739 314 651 124 q 810 639 810 467 z "},"R":{"ha":808,"x_min":83,"x_max":871,"o":"m 871 769 q 813 574 871 656 q 594 436 740 474 l 711 149 q 801 0 740 76 l 593 0 l 394 538 q 293 106 338 292 q 296 0 283 68 l 90 0 q 129 82 107 26 l 258 650 q 258 750 269 699 l 458 811 l 394 540 q 410 540 400 540 q 424 539 419 539 q 636 600 556 539 q 707 750 707 654 q 644 879 707 835 q 507 918 592 918 q 246 807 336 918 q 185 689 200 750 q 174 588 181 669 q 103 674 119 647 q 83 739 83 706 q 196 947 83 856 q 507 1047 318 1047 q 772 965 669 1047 q 871 769 871 888 z "},"S":{"ha":775,"x_min":19,"x_max":814,"o":"m 814 825 l 660 782 q 507 918 665 918 q 372 875 422 918 q 321 765 321 832 q 349 704 321 729 q 428 650 364 690 q 588 557 476 622 q 729 321 729 471 q 631 85 729 181 q 376 -11 532 -11 q 127 60 235 -11 q 19 217 19 132 q 85 363 19 274 q 207 176 114 242 q 378 125 285 124 q 515 176 457 126 q 572 299 572 225 q 496 410 572 358 q 331 510 492 413 q 213 601 243 563 q 167 754 167 660 q 261 965 167 882 q 497 1047 356 1047 q 717 979 631 1047 q 814 825 792 919 z "},"T":{"ha":503,"x_min":104,"x_max":844,"o":"m 844 1033 q 814 933 818 942 q 700 865 778 865 l 540 865 l 364 106 q 358 56 358 79 q 368 0 358 42 l 153 0 q 210 124 186 36 q 382 865 218 156 l 208 865 q 104 836 142 865 l 146 1004 l 682 1004 q 789 1011 756 1004 q 844 1033 810 1015 z "},"U":{"ha":814,"x_min":67,"x_max":921,"o":"m 921 1004 q 874 897 888 957 q 704 163 865 858 q 692 68 692 108 q 701 0 692 26 l 519 0 q 539 90 525 29 q 288 -18 432 -18 q 127 33 188 -18 q 67 167 67 83 q 104 374 67 208 l 221 879 q 218 1004 238 950 l 429 1004 q 315 624 386 929 q 228 217 272 421 q 224 185 224 200 q 308 117 224 117 q 478 192 389 117 q 590 361 568 267 q 713 890 639 567 q 711 1004 731 972 l 921 1004 z "},"V":{"ha":769,"x_min":128,"x_max":900,"o":"m 900 869 q 764 539 900 736 l 390 0 l 235 0 l 172 801 q 128 1004 163 942 l 343 1004 q 326 875 321 949 l 372 215 l 557 493 q 713 753 675 672 q 738 854 738 808 q 682 944 738 919 q 572 961 647 960 q 711 1058 632 1058 q 849 1010 797 1058 q 900 869 900 961 z "},"W":{"ha":1164,"x_min":142,"x_max":1313,"o":"m 1313 864 q 1157 507 1313 738 q 799 0 1082 396 l 642 0 l 619 301 q 404 0 539 189 l 249 0 l 186 800 q 142 1004 175 939 l 357 1004 q 339 903 336 949 l 385 211 l 601 533 l 581 800 q 535 1004 569 936 l 751 1004 q 732 903 729 949 l 779 214 q 1036 603 881 363 q 1146 853 1146 781 q 997 960 1146 960 l 981 960 q 1121 1057 1043 1057 q 1256 1002 1199 1057 q 1313 864 1313 947 z "},"X":{"ha":847,"x_min":63,"x_max":978,"o":"m 978 1004 q 890 908 949 992 l 615 517 l 714 200 q 810 24 750 82 q 961 -54 865 -32 q 824 -108 885 -108 q 575 128 650 -108 l 503 356 l 339 122 q 283 0 285 46 l 63 0 q 169 126 101 42 l 447 526 l 322 921 q 282 1004 308 967 l 500 1004 q 496 903 482 950 l 561 688 l 707 899 q 742 1004 746 954 l 978 1004 z "},"Y":{"ha":651,"x_min":99,"x_max":797,"o":"m 797 878 q 597 518 797 718 q 436 375 543 464 l 374 100 q 378 0 360 43 l 167 0 q 211 96 197 38 q 275 374 238 204 q 138 925 256 460 q 99 1004 128 961 l 317 1004 q 308 917 303 944 q 397 525 340 774 q 571 703 533 654 q 631 854 631 779 q 481 971 631 954 q 626 1054 567 1054 q 732 1018 683 1054 q 797 878 797 969 z "},"Z":{"ha":686,"x_min":-69,"x_max":793,"o":"m 793 1004 l 758 854 l 164 139 l 506 139 q 600 153 563 139 q 660 182 611 157 q 614 58 628 79 q 481 0 575 0 l -69 0 l -35 139 l 571 869 l 274 869 q 199 858 233 869 q 151 840 175 850 l 192 1004 l 793 1004 z "},"a":{"ha":621,"x_min":-4,"x_max":601,"o":"m 597 510 q 503 111 585 446 q 506 0 488 49 l 354 0 l 356 60 q 182 -12 283 -12 q 44 32 92 -12 q -4 153 -4 76 q 61 306 -4 235 q 165 375 103 350 q 306 414 206 390 q 401 442 379 431 q 451 507 449 464 q 390 553 454 553 q 290 525 344 553 q 175 428 222 492 q 142 517 142 483 q 231 625 142 581 q 415 667 314 667 q 601 543 601 667 q 597 510 601 528 m 407 329 q 250 278 328 304 q 154 167 154 236 q 173 126 154 144 q 218 107 192 107 q 349 174 299 108 q 407 329 394 233 z "},"b":{"ha":622,"x_min":-19,"x_max":604,"o":"m 604 485 q 565 271 604 375 q 416 59 514 135 q 201 -17 318 -17 q 80 0 147 -17 q -19 39 13 17 l 147 760 q 139 854 160 811 l 329 914 l 147 124 q 206 113 178 113 q 377 222 300 113 q 454 472 454 331 q 403 540 454 540 q 343 506 375 540 q 301 435 311 472 q 263 531 263 486 q 315 624 263 583 q 429 664 368 664 q 563 610 515 664 q 604 485 604 563 z "},"c":{"ha":593,"x_min":26,"x_max":599,"o":"m 599 483 l 471 439 q 472 461 472 450 q 368 551 472 551 q 233 464 293 551 q 174 274 174 376 q 300 107 174 107 q 410 158 361 107 q 478 297 460 208 q 547 183 547 229 q 540 149 547 167 q 286 -11 476 -11 q 90 79 161 -11 q 26 274 26 158 q 122 544 26 429 q 371 665 224 665 q 533 613 472 665 q 599 483 594 561 z "},"d":{"ha":629,"x_min":29,"x_max":696,"o":"m 696 914 l 494 42 q 294 -18 406 -18 q 99 59 168 -18 q 29 268 29 136 q 125 551 29 431 q 322 665 215 665 q 417 639 381 665 q 453 578 453 613 q 403 475 453 539 q 332 536 389 536 q 222 442 269 536 q 178 249 178 353 q 210 142 178 179 q 293 104 242 104 q 368 122 332 104 l 515 763 q 514 856 528 818 l 696 914 z "},"e":{"ha":625,"x_min":28,"x_max":607,"o":"m 601 410 l 190 194 q 232 138 201 161 q 306 110 265 110 q 425 171 368 110 q 508 326 482 232 q 572 228 572 281 q 497 79 572 157 q 286 -14 408 -14 q 90 69 161 -14 q 28 264 28 146 q 119 535 28 415 q 378 665 222 665 q 547 592 488 665 q 601 410 607 519 m 457 467 q 434 526 457 500 q 378 551 411 551 q 249 479 304 551 q 186 326 201 415 l 457 467 z "},"f":{"ha":350,"x_min":-26,"x_max":511,"o":"m 511 814 q 447 832 488 832 q 349 796 385 832 q 306 713 322 768 q 282 617 293 665 l 338 617 q 442 654 389 617 q 404 550 429 615 q 290 500 385 500 q 267 501 279 500 q 254 501 254 501 q 163 97 197 257 q 165 0 150 44 l -26 0 q 13 81 1 33 l 111 501 l 46 501 q 72 615 58 553 l 139 615 l 174 760 q 249 879 193 832 q 393 932 310 932 q 475 911 454 932 q 511 814 496 890 z "},"g":{"ha":649,"x_min":6,"x_max":636,"o":"m 636 560 l 493 -65 q 276 -211 460 -211 q 90 -166 174 -211 q 10 -65 6 -121 q 19 25 14 -10 q 257 -92 117 -92 q 351 -32 338 -92 q 361 10 354 -19 q 282 -8 319 -8 q 122 57 188 -8 q 44 272 44 135 q 131 539 44 422 q 385 672 229 672 q 539 636 465 672 q 636 560 600 604 m 481 519 q 385 551 446 551 q 246 454 301 551 q 196 261 196 368 q 227 156 196 197 q 313 114 258 114 q 365 125 339 114 q 393 143 392 136 l 481 519 z "},"h":{"ha":624,"x_min":-44,"x_max":603,"o":"m 597 482 q 506 90 571 374 q 508 0 493 36 l 318 0 q 356 79 343 31 q 444 454 411 303 q 450 493 450 476 q 397 544 450 544 q 274 490 328 544 q 210 371 226 442 l 143 92 q 144 0 135 54 l -44 0 q -1 89 -11 47 l 151 751 q 150 854 161 792 l 335 911 l 260 588 q 447 663 361 663 q 567 622 525 663 q 603 526 603 586 q 597 482 603 504 z "},"i":{"ha":276,"x_min":-40,"x_max":315,"o":"m 315 794 q 291 726 315 757 q 231 696 267 696 q 150 778 150 696 q 177 849 150 819 q 242 879 204 879 q 315 794 315 879 m 281 658 l 150 90 q 157 0 138 35 l -40 0 q -1 64 -10 28 q 96 479 51 276 q 94 599 113 554 l 281 658 z "},"j":{"ha":276,"x_min":-207,"x_max":318,"o":"m 318 789 q 292 717 318 747 q 233 686 267 686 q 177 710 200 686 q 154 771 154 733 q 179 840 154 810 q 240 871 204 871 q 318 789 318 871 m 283 651 q 142 49 249 508 q 90 -121 113 -79 q -61 -206 44 -206 q -207 -129 -139 -206 l -185 -129 q -67 -95 -104 -129 q -8 28 -29 -61 q 89 439 32 196 q 107 540 107 515 q 100 596 107 574 l 283 651 z "},"k":{"ha":607,"x_min":-33,"x_max":626,"o":"m 626 631 q 544 556 575 593 l 376 351 l 488 104 q 563 0 513 47 l 378 0 l 215 363 l 151 86 q 157 0 142 46 l -33 0 q 7 88 -4 39 l 160 746 q 157 847 174 804 l 339 904 l 215 368 l 435 631 l 626 631 z "},"l":{"ha":278,"x_min":-33,"x_max":339,"o":"m 339 904 l 151 86 q 157 0 142 44 l -33 0 q 7 88 -4 39 l 160 746 q 157 847 174 804 l 339 904 z "},"m":{"ha":921,"x_min":-43,"x_max":904,"o":"m 900 504 q 806 93 867 358 q 808 0 799 61 l 619 0 q 678 160 649 32 q 750 482 679 167 q 753 504 753 494 q 714 542 753 542 q 611 489 664 542 q 551 394 564 440 q 476 90 531 315 q 481 0 467 53 l 289 0 q 326 69 321 44 l 424 482 q 426 501 426 493 q 385 543 426 543 q 272 483 325 543 q 219 390 231 436 q 144 72 183 242 q 150 0 136 38 l -43 0 q 8 119 -14 29 q 89 460 72 383 q 103 547 103 522 q 90 607 103 572 l 258 661 q 242 568 253 628 q 308 619 275 593 q 440 661 374 661 q 569 571 538 661 q 768 663 661 663 q 868 630 832 663 q 904 543 904 597 q 900 504 904 524 z "},"n":{"ha":626,"x_min":-42,"x_max":607,"o":"m 603 493 q 508 90 575 379 q 511 0 496 36 l 321 0 q 358 79 346 31 q 450 461 403 261 q 454 493 454 479 q 400 544 454 544 q 281 495 332 544 q 213 371 231 446 l 146 92 q 147 0 135 47 l -42 0 q -1 89 -12 40 l 94 499 q 86 607 106 544 l 256 661 l 238 567 q 450 663 339 663 q 564 627 521 663 q 607 532 607 592 q 603 493 607 513 z "},"o":{"ha":679,"x_min":28,"x_max":651,"o":"m 651 399 q 557 117 651 235 q 292 -11 456 -11 q 121 43 189 -11 q 28 274 28 115 q 124 540 28 426 q 389 665 226 665 q 586 588 515 665 q 651 399 651 515 m 501 407 q 385 549 501 549 q 239 459 297 549 q 181 243 181 369 q 211 146 181 182 q 303 106 243 106 q 458 221 401 106 q 501 407 501 310 z "},"p":{"ha":618,"x_min":-100,"x_max":585,"o":"m 585 386 q 497 108 585 229 q 292 -12 410 -12 q 201 13 240 -12 q 161 78 161 38 q 210 178 161 113 q 279 114 235 114 q 392 208 346 114 q 435 400 435 296 q 322 543 435 543 q 246 525 285 543 l 97 -115 q 94 -237 79 -193 l -100 -237 q -46 -106 -64 -182 l 118 607 q 317 665 201 665 q 513 589 442 665 q 585 386 585 513 z "},"q":{"ha":642,"x_min":14,"x_max":636,"o":"m 636 607 l 464 -122 q 457 -199 456 -160 q 463 -237 458 -229 l 268 -237 q 322 -110 303 -192 l 472 528 q 417 539 450 539 q 231 415 308 539 q 164 194 164 307 q 215 111 164 111 q 276 145 244 111 q 317 217 307 179 q 354 117 354 167 q 301 27 354 67 q 190 -12 247 -12 q 14 201 14 -12 q 124 508 14 365 q 418 667 244 667 q 636 607 531 667 z "},"r":{"ha":365,"x_min":-44,"x_max":426,"o":"m 426 557 q 276 506 340 557 q 231 444 244 481 q 197 331 218 418 q 143 108 182 271 q 146 0 131 53 l -44 0 q 1 117 -15 44 q 86 479 32 240 q 96 554 96 525 q 85 607 96 581 l 254 661 l 238 574 q 363 667 303 667 q 413 639 399 667 q 426 557 422 619 z "},"s":{"ha":567,"x_min":-17,"x_max":558,"o":"m 558 492 l 435 446 q 319 554 444 554 q 211 482 211 554 q 233 441 211 457 q 332 394 256 425 q 460 324 426 357 q 504 204 504 281 q 435 56 504 119 q 249 -12 360 -12 q 64 33 144 -12 q -17 146 -17 79 q 32 267 -17 182 q 81 171 33 222 q 242 101 142 101 q 329 129 292 101 q 367 199 367 157 q 315 257 367 233 q 174 321 274 276 q 76 474 76 361 q 143 613 76 561 q 310 665 210 665 q 478 618 413 665 q 558 492 544 571 z "},"t":{"ha":382,"x_min":31,"x_max":433,"o":"m 433 660 q 400 569 417 611 q 307 514 378 514 l 263 514 q 185 192 256 476 q 181 164 181 178 q 224 104 181 113 q 322 111 261 96 q 293 49 294 51 q 248 0 274 13 q 185 -12 222 -12 q 73 26 115 -12 q 31 131 31 65 q 36 176 31 153 l 115 514 l 50 514 l 81 632 l 143 632 l 178 790 l 336 838 l 288 632 l 331 632 q 433 660 389 632 z "},"u":{"ha":619,"x_min":11,"x_max":629,"o":"m 629 656 l 503 111 q 501 0 492 64 l 343 0 l 358 72 q 290 19 306 28 q 167 -12 236 -12 q 67 15 111 -12 q 11 119 11 51 q 22 183 11 138 q 100 522 38 243 q 96 596 107 556 l 274 653 l 165 181 q 161 147 161 161 q 218 101 161 101 q 281 122 243 101 q 347 172 319 142 q 408 324 382 211 q 453 529 438 450 q 451 599 461 569 l 629 656 z "},"v":{"ha":592,"x_min":36,"x_max":596,"o":"m 596 529 q 471 244 596 424 q 275 0 410 156 l 126 0 q 75 475 114 117 q 36 631 64 575 l 232 631 q 215 549 213 590 l 244 156 q 354 304 292 207 q 449 511 449 440 q 372 575 449 575 q 335 571 356 575 q 384 644 358 622 q 457 665 410 665 q 546 635 507 665 q 596 529 596 597 z "},"w":{"ha":896,"x_min":35,"x_max":900,"o":"m 900 533 q 794 275 900 433 q 578 0 739 192 l 426 0 l 406 199 q 285 0 367 131 l 125 0 q 78 478 115 111 q 35 631 67 575 l 226 631 q 214 547 210 590 l 247 164 q 386 396 300 249 q 365 563 372 528 q 339 631 357 599 l 532 631 q 518 547 515 585 l 551 157 q 658 307 582 194 q 751 514 751 439 q 678 578 751 578 q 642 574 661 578 q 760 668 682 668 q 858 631 817 668 q 900 533 900 593 z "},"x":{"ha":628,"x_min":-60,"x_max":658,"o":"m 658 631 q 560 533 610 594 l 382 314 q 492 90 410 257 q 642 3 528 18 q 581 -44 592 -37 q 510 -65 547 -65 q 340 78 407 -65 q 285 194 326 110 l 200 89 q 140 0 150 28 l -60 0 q 47 107 -24 32 l 224 324 l 124 533 q 47 631 93 596 l 228 631 q 319 442 249 589 l 379 515 q 457 631 447 599 l 658 631 z "},"y":{"ha":635,"x_min":-11,"x_max":639,"o":"m 639 665 l 478 -44 q 399 -172 460 -125 q 224 -226 331 -226 q 106 -207 168 -226 q 16 -158 43 -187 q -8 -33 -11 -129 q 203 -108 96 -108 q 298 -86 269 -108 q 339 -6 326 -64 l 354 65 q 171 -11 264 -11 q 65 17 110 -11 q 11 111 11 51 q 15 144 11 128 l 101 529 q 97 603 110 563 l 276 663 l 168 185 q 164 153 164 165 q 222 106 164 107 q 288 125 247 106 q 356 175 328 144 q 417 328 392 214 q 460 531 444 454 q 460 606 468 572 l 639 665 z "},"z":{"ha":614,"x_min":-39,"x_max":613,"o":"m 613 633 l 585 511 l 176 126 l 424 126 q 546 165 488 126 q 501 46 517 69 q 404 0 471 0 l -39 0 l -10 126 l 396 515 l 196 515 q 96 497 129 515 l 126 633 l 613 633 z "},"à":{"ha":1389,"x_min":0,"x_max":0,"o":""},"ä":{"ha":1389,"x_min":0,"x_max":0,"o":""},"ï":{"ha":1389,"x_min":0,"x_max":0,"o":""},"®":{"ha":104,"x_min":22,"x_max":85,"o":"m 85 575 q 54 544 85 544 q 22 575 22 544 q 54 607 22 607 q 85 575 85 607 m 82 575 q 54 604 82 604 q 26 575 26 604 q 54 547 26 547 q 82 575 82 547 m 69 557 l 64 557 l 54 574 l 46 574 l 46 557 l 42 557 l 42 594 l 57 594 q 66 592 63 594 q 69 585 69 590 q 58 574 69 574 l 69 557 m 65 585 q 57 590 65 590 l 46 590 l 46 578 l 53 578 q 65 585 65 578 z "},"™":{"ha":125,"x_min":21,"x_max":118,"o":"m 118 550 l 111 550 l 111 592 l 94 550 l 90 550 l 75 592 l 75 550 l 67 550 l 67 597 l 79 597 l 92 565 l 107 597 l 118 597 l 118 550 m 58 592 l 43 592 l 43 550 l 36 550 l 36 592 l 21 592 l 21 597 l 58 597 l 58 592 z "},"¨":{"ha":1389,"x_min":0,"x_max":0,"o":""},"ª":{"ha":1389,"x_min":0,"x_max":0,"o":""}," ":{"ha":172,"x_min":0,"x_max":0,"o":""},"‡":{"ha":771,"x_min":8,"x_max":767,"o":"m 767 0 l 567 0 q 524 64 554 19 q 440 13 493 35 q 306 -17 372 -17 q 103 51 188 -17 q 8 258 8 128 q 219 549 8 450 q 172 686 172 626 q 233 813 172 764 q 386 863 293 863 q 522 822 468 863 q 575 711 575 782 q 408 513 575 608 l 533 311 q 563 456 563 382 q 553 536 563 496 q 661 478 635 506 q 688 396 688 451 q 622 182 688 292 q 660 126 639 154 q 767 0 708 60 m 426 711 q 382 761 426 761 q 321 694 321 761 q 349 618 321 663 q 426 711 426 663 m 449 175 l 283 436 q 215 385 250 411 q 165 257 165 333 q 206 152 165 192 q 310 113 246 113 q 449 175 393 113 z "},"‰":{"ha":786,"x_min":18,"x_max":867,"o":"m 867 -56 q 806 -93 836 -75 q 729 -112 768 -112 q 490 100 571 -112 q 326 528 431 257 q 228 99 294 390 q 231 0 219 64 l 22 0 q 67 90 54 35 q 192 644 108 267 q 192 743 203 690 l 393 806 l 328 533 q 369 532 349 532 q 564 590 486 532 q 642 743 642 647 q 581 872 642 828 q 444 910 528 910 q 181 801 269 910 q 108 582 111 717 q 18 732 18 669 q 132 943 18 853 q 442 1040 256 1040 q 714 956 613 1040 q 806 763 806 878 q 526 431 806 503 l 643 144 q 867 -56 711 -26 z "},"Ê":{"ha":1389,"x_min":0,"x_max":0,"o":""},"Ô":{"ha":549,"x_min":-46,"x_max":644,"o":"m 644 1004 q 590 871 613 967 q 446 243 557 731 q 142 -17 386 -17 q 10 24 65 -17 q -46 117 -46 64 q 3 217 -46 151 q 52 145 13 175 q 140 115 92 115 q 288 254 256 115 q 431 868 354 550 q 436 1004 453 958 l 644 1004 z "},"ð":{"ha":1389,"x_min":0,"x_max":0,"o":""},"":{"ha":692,"x_min":68,"x_max":660,"o":"m 638 500 q 589 512 629 500 q 546 522 549 524 q 504 514 528 522 q 463 508 503 511 q 474 539 463 539 q 508 546 476 539 q 543 553 540 553 q 560 547 546 553 q 582 539 575 540 q 626 522 617 532 q 638 500 649 500 m 660 403 q 650 389 660 399 q 640 383 650 389 q 629 375 631 376 q 607 357 615 361 q 556 343 579 343 q 523 353 549 343 q 494 368 497 364 q 486 399 486 379 q 500 438 486 425 q 536 450 514 450 q 567 457 536 450 q 589 460 589 460 q 594 456 593 460 q 593 450 597 451 q 578 436 578 443 q 593 433 578 433 q 603 435 594 433 q 615 439 611 438 q 626 436 621 440 q 626 431 631 432 q 611 414 614 428 q 618 403 610 410 q 632 397 626 397 q 651 406 640 397 q 660 403 660 411 m 450 457 q 438 425 450 449 q 425 383 435 408 q 415 365 414 365 q 401 382 411 365 q 399 403 397 393 q 403 429 400 415 q 424 451 410 438 q 440 457 429 456 q 450 457 450 460 m 261 538 q 240 546 258 533 q 199 572 222 558 q 161 588 181 585 q 149 592 158 588 q 132 596 139 596 l 108 596 q 104 600 106 596 q 107 604 104 603 q 149 608 119 608 q 192 602 178 608 q 228 583 207 596 q 257 558 242 575 q 261 538 264 542 m 400 263 q 396 231 401 261 q 379 214 393 214 q 369 210 378 214 q 358 206 360 206 q 360 222 351 206 q 368 258 360 232 q 367 275 367 256 l 367 297 q 374 332 367 322 q 383 339 375 339 q 393 335 392 339 q 389 326 394 332 q 383 319 383 321 q 386 309 383 318 q 390 294 389 300 q 400 263 393 269 m 249 456 q 235 460 249 456 q 231 447 232 457 q 225 418 239 428 q 193 401 200 400 q 165 404 186 401 q 136 415 153 407 q 117 433 119 422 q 111 475 108 468 q 111 485 113 478 q 108 492 111 492 q 98 493 106 492 q 86 494 90 494 q 78 489 81 493 q 68 499 71 486 q 78 501 72 506 q 93 501 79 497 q 88 511 92 506 q 76 526 76 533 q 81 528 76 528 q 86 526 85 528 q 100 517 93 519 q 106 526 108 519 q 97 557 101 535 q 103 558 100 563 q 108 550 104 557 q 113 541 113 543 q 121 532 114 539 q 124 546 118 538 q 129 556 129 554 q 133 557 129 557 q 139 556 138 558 q 150 535 144 542 q 156 539 151 533 q 161 546 161 544 q 176 561 161 543 q 182 539 178 553 q 196 525 186 532 q 214 510 200 521 q 229 495 225 504 q 240 474 233 486 q 249 456 249 449 m 342 218 q 332 210 338 204 q 324 217 332 211 q 315 224 317 224 q 318 240 311 228 q 335 238 324 240 q 342 218 346 235 m 460 142 q 446 128 446 126 q 448 119 446 129 q 449 103 450 110 q 440 94 447 94 q 428 92 433 93 q 431 74 424 90 q 414 58 433 68 q 389 31 407 49 q 368 19 383 28 q 310 36 357 13 q 303 50 294 44 q 335 69 307 47 q 351 75 340 75 q 364 78 361 75 q 360 81 363 79 q 346 81 347 81 q 332 83 343 82 q 317 83 321 83 q 310 93 306 86 q 361 100 313 93 q 354 110 372 101 q 313 119 336 119 q 285 129 300 119 q 238 131 282 131 q 225 144 217 144 q 256 143 246 144 q 282 147 249 144 q 291 144 289 149 q 300 138 293 140 q 326 136 307 136 q 339 141 329 136 q 351 146 349 146 q 368 138 354 146 q 389 131 382 131 q 396 136 397 131 q 393 144 393 150 q 401 161 393 157 q 419 149 411 167 q 433 143 422 143 q 449 157 446 143 q 460 142 450 165 m 200 146 q 183 142 193 139 q 168 153 174 144 q 172 165 167 158 q 181 171 178 172 q 186 160 183 171 q 194 153 186 158 q 200 146 201 147 m 578 408 q 576 418 579 414 q 564 415 571 417 q 557 411 557 414 q 565 403 565 403 q 578 408 572 403 m 575 360 q 574 369 583 360 q 568 369 571 372 q 564 365 564 368 q 575 360 564 360 m 542 367 q 540 374 543 369 q 536 379 536 378 q 538 388 536 389 q 521 392 536 389 q 515 406 515 393 q 524 417 515 411 q 524 422 526 418 q 518 426 521 426 q 506 419 515 428 q 497 406 497 411 q 501 379 497 386 q 521 364 501 379 q 533 363 525 361 q 542 367 540 364 m 203 471 q 188 483 203 476 q 182 479 183 485 q 182 469 181 474 q 188 463 181 464 q 200 464 192 463 q 203 471 203 464 m 193 418 q 172 426 190 421 q 158 442 163 429 q 156 453 160 447 q 142 465 147 454 q 138 485 142 474 q 133 481 136 488 q 126 469 129 475 q 128 440 117 460 q 144 424 133 429 q 178 415 156 418 q 193 418 188 415 z "}}}
